<svg width="12" height="12" viewBox="0 0 12 12" fill="none" xmlns="http://www.w3.org/2000/svg">
<path d="M10.2615 9.49138C10.2615 10.875 8.35297 11.9871 6.00002 11.9871C3.64708 11.9871 1.73859 10.8621 1.73859 9.47845V8.48276H2.09153C2.74512 7.60345 4.24839 6.98276 6.00002 6.98276C7.75166 6.98276 9.24186 7.60345 9.90852 8.48276H10.2615V9.38793C10.2615 9.43965 10.2615 9.46551 10.2615 9.49138Z" fill="#FDA204"/>
<g opacity="0.6">
<g opacity="0.6">
<path opacity="0.6" d="M10.2614 9.40087C10.2614 9.42673 10.2614 9.46552 10.2614 9.49138C10.2614 10.875 8.35294 11.9871 6 11.9871V5.98708C8.35294 5.98708 10.2614 7.11207 10.2614 8.48276C10.2614 8.52156 10.2614 8.54742 10.2614 8.58621V9.40087Z" fill="#E27A00"/>
</g>
</g>
<path d="M10.2615 8.4957C10.2615 8.53449 10.2615 8.56035 10.2615 8.59915C10.17 9.93104 8.30068 10.9914 6.00002 10.9914C3.64708 10.9914 1.73859 9.86639 1.73859 8.48277C1.73859 7.09915 3.64708 5.98708 6.00002 5.98708C8.35297 6.00001 10.2615 7.11208 10.2615 8.4957Z" fill="#FFCA35"/>
<path d="M3.42487 8.70259L6.35297 7.02156L6.45754 7.06035C6.81048 7.20259 7.1765 7.3707 7.54251 7.56466C8.07846 7.83622 8.40525 8.09484 8.50983 8.34053C8.61441 8.56035 8.5229 8.76725 8.26146 8.92242C7.98695 9.07759 7.64709 9.14225 7.24186 9.11639C6.73205 9.09053 6.14382 8.90949 5.58173 8.62501C5.47715 8.57328 5.37258 8.50863 5.28107 8.45691L4.16996 9.09053L3.42487 8.70259ZM5.75166 8.18535C5.83009 8.23708 5.93467 8.2888 6.06539 8.36639C6.40526 8.53449 7.04578 8.79311 7.49022 8.53449C7.86931 8.31466 7.49022 8.03018 7.09807 7.82328C6.92813 7.73277 6.79741 7.66811 6.69284 7.62932L5.75166 8.18535Z" fill="#FDA204"/>
<path d="M10.2615 8.06896C10.2615 9.45258 8.35297 10.5647 6.00002 10.5647C3.64708 10.5647 1.73859 9.43965 1.73859 8.05603V7.06034H2.09153C2.74512 6.18103 4.24839 5.56034 6.00002 5.56034C7.75166 5.56034 9.24186 6.18103 9.90852 7.06034H10.2615V7.96552C10.2615 8.00431 10.2615 8.03017 10.2615 8.06896Z" fill="#FDA204"/>
<g opacity="0.6">
<g opacity="0.6">
<path opacity="0.6" d="M10.2614 7.97845C10.2614 8.00432 10.2614 8.04311 10.2614 8.06897C10.2614 9.45259 8.35294 10.5647 6 10.5647V4.56466C8.35294 4.56466 10.2614 5.68966 10.2614 7.06035C10.2614 7.09914 10.2614 7.12501 10.2614 7.1638V7.97845Z" fill="#E27A00"/>
</g>
</g>
<path d="M10.2615 7.06034C10.2615 7.09913 10.2615 7.12499 10.2615 7.16378C10.17 8.49568 8.30068 9.56896 6.00002 9.56896C3.64708 9.56896 1.73859 8.44396 1.73859 7.07327C1.73859 5.68965 3.64708 4.57758 6.00002 4.57758C8.35297 4.56465 10.2615 5.68965 10.2615 7.06034Z" fill="#FFCA35"/>
<path d="M3.42487 7.28017L6.35297 5.59914L6.45754 5.63793C6.81048 5.78017 7.1765 5.94828 7.54251 6.14224C8.07846 6.41379 8.40525 6.67242 8.50983 6.91811C8.61441 7.13793 8.5229 7.34483 8.26146 7.5C7.98695 7.65517 7.64709 7.71983 7.24186 7.69397C6.73205 7.6681 6.14382 7.48707 5.58173 7.20259C5.47715 7.15086 5.37258 7.08621 5.28107 7.03448L4.16996 7.6681L3.42487 7.28017ZM5.75166 6.76293C5.83009 6.81466 5.93467 6.86638 6.06539 6.94397C6.40526 7.11207 7.04578 7.37069 7.49022 7.11207C7.86931 6.89224 7.49022 6.60776 7.09807 6.40086C6.92813 6.31035 6.79741 6.24569 6.69284 6.2069L5.75166 6.76293Z" fill="#FDA204"/>
<path d="M0 5.78018H0.352941C1.00654 4.90087 2.5098 4.28018 4.26144 4.28018C6.01307 4.28018 7.50327 4.90087 8.16993 5.78018H8.52287V6.68535C8.52287 6.71121 8.52287 6.75001 8.52287 6.77587" fill="#FDA204"/>
<path d="M8.49673 6.07759C8.49673 7.86976 6.59409 9.3102 4.24837 9.3102C1.90264 9.32695 0 7.86976 0 6.07759" fill="#FDA204"/>
<g opacity="0.6">
<g opacity="0.6">
<path opacity="0.6" d="M8.52285 6.68535C8.52285 6.71121 8.52285 6.75001 8.52285 6.77587C8.52285 8.15949 6.61435 9.27156 4.26141 9.27156V3.27156C6.61435 3.27156 8.52285 4.39656 8.52285 5.76725C8.52285 5.80604 8.52285 5.8319 8.52285 5.8707V6.68535Z" fill="#E27A00"/>
</g>
</g>
<path d="M0 5.78018C0 4.39656 1.9085 3.27156 4.26144 3.27156C6.61438 3.27156 8.52287 4.39656 8.52287 5.76725" fill="#FFCA35"/>
<path d="M8.52287 5.78017C8.52287 5.81896 8.52287 5.84482 8.52287 5.88362C8.43137 7.21551 6.56209 8.27586 4.26144 8.27586C1.9085 8.27586 0 7.16379 0 5.78017" fill="#FFCA35"/>
<path d="M1.68628 5.98708L4.61438 4.30604L4.71896 4.34483C5.0719 4.48707 5.43791 4.65518 5.80393 4.84914C6.33987 5.1207 6.66667 5.37932 6.77125 5.62501C6.87582 5.84483 6.78432 6.05173 6.52288 6.2069C6.24837 6.36208 5.9085 6.42673 5.50327 6.40087C4.99347 6.37501 4.40523 6.19397 3.84314 5.90949C3.73857 5.85777 3.63399 5.79311 3.54249 5.74139L2.43138 6.37501L1.68628 5.98708ZM4.01308 5.46983C4.09151 5.52156 4.19608 5.57328 4.3268 5.65087C4.66667 5.81897 5.30719 6.07759 5.76471 5.81897C6.14379 5.59914 5.76471 5.31466 5.37255 5.10776C5.20262 5.01725 5.0719 4.95259 4.96732 4.9138L4.01308 5.46983Z" fill="#FDA204"/>
<path d="M9.39867 5.06897C9.39867 6.45259 7.49017 7.56466 5.13723 7.56466C2.78429 7.56466 0.875793 6.43966 0.875793 5.05604V4.06035H1.22873C1.88233 3.18104 3.3856 2.56035 5.13723 2.56035C6.88887 2.56035 8.37906 3.18104 9.04573 4.06035H9.39867V4.96552C9.39867 5.00432 9.39867 5.03018 9.39867 5.06897Z" fill="#FDA204"/>
<g opacity="0.6">
<g opacity="0.6">
<path opacity="0.6" d="M9.38559 4.96552C9.38559 4.99138 9.38559 5.03017 9.38559 5.05603C9.38559 6.43965 7.47709 7.55172 5.12415 7.55172V1.55173C7.47709 1.55173 9.38559 2.67672 9.38559 4.04741C9.38559 4.08621 9.38559 4.11207 9.38559 4.15086V4.96552Z" fill="#E27A00"/>
</g>
</g>
<path d="M9.39867 4.06034C9.39867 4.09913 9.39867 4.12499 9.39867 4.16379C9.30717 5.49568 7.43789 6.56896 5.13723 6.56896C2.78429 6.56896 0.875793 5.44396 0.875793 4.07327C0.875793 2.68965 2.78429 1.57758 5.13723 1.57758C7.49017 1.56465 9.39867 2.67672 9.39867 4.06034Z" fill="#FFCA35"/>
<path d="M2.56207 4.28017L5.49018 2.58621L5.59475 2.625C5.94769 2.76724 6.3137 2.93535 6.67972 3.12931C7.21566 3.40086 7.54246 3.65948 7.64704 3.90517C7.75161 4.125 7.66011 4.3319 7.39867 4.48707C7.12416 4.64224 6.78429 4.7069 6.37906 4.68103C5.86926 4.65517 5.28103 4.47414 4.71893 4.18966C4.61436 4.13793 4.50978 4.07328 4.41828 4.02155L3.30717 4.65517L2.56207 4.28017ZM4.88887 3.75C4.9673 3.80172 5.07188 3.85345 5.20259 3.93104C5.54246 4.11207 6.18299 4.35776 6.62743 4.09914C7.00652 3.87931 6.62743 3.59483 6.23527 3.38793C6.06534 3.29741 5.93462 3.23276 5.83004 3.19397L4.88887 3.75Z" fill="#FDA204"/>
</svg>
